<svg xmlns="http://www.w3.org/2000/svg" width="1200" height="320" viewBox="0 0 1200 320" role="img" aria-labelledby="title desc">
  <title id="title">BFTools product desk</title>
  <desc id="desc">A clear grid of Windows windows beside the BFTools name.</desc>
  <rect width="1200" height="320" rx="20" fill="#11232A"/>
  <path d="M0 258H1200" stroke="#31505A"/>
  <path d="M60 0V320M1140 0V320" stroke="#31505A" stroke-opacity=".5"/>
  <text x="66" y="75" fill="#8DE0C5" font-family="Arial, Helvetica, sans-serif" font-size="19" letter-spacing="4">BFTools / PRODUCT DESK</text>
  <text x="64" y="160" fill="#F4F6F1" font-family="Arial, Helvetica, sans-serif" font-size="54" font-weight="700">Windows, in order.</text>
  <text x="66" y="207" fill="#B6C9C9" font-family="Arial, Helvetica, sans-serif" font-size="22">Practical tools for work that repeats.</text>
  <g transform="translate(813 45)" stroke="#75C9BB" stroke-width="2">
    <rect x="0" y="0" width="309" height="229" rx="12" fill="#193A42"/>
    <path d="M0 33H309"/>
    <circle cx="20" cy="17" r="4" fill="#75C9BB" stroke="none"/>
    <circle cx="35" cy="17" r="4" fill="#4D8986" stroke="none"/>
    <circle cx="50" cy="17" r="4" fill="#4D8986" stroke="none"/>
    <rect x="16" y="49" width="132" height="72" rx="5" fill="#2B555D"/>
    <rect x="160" y="49" width="132" height="72" rx="5" fill="#2B555D"/>
    <rect x="16" y="133" width="132" height="78" rx="5" fill="#2B555D"/>
    <rect x="160" y="133" width="132" height="78" rx="5" fill="#2B555D"/>
    <path d="M32 66H105M176 66H250M32 151H105M176 151H250" stroke="#A4DFD0" stroke-width="4" stroke-linecap="round"/>
  </g>
</svg>
